<svg id="Group_127" data-name="Group 127" xmlns="http://www.w3.org/2000/svg" xmlns:xlink="http://www.w3.org/1999/xlink" width="243.731" height="61.766" viewBox="0 0 243.731 61.766">
  <defs>
    <clipPath id="clip-path">
      <rect id="Rectangle_86" data-name="Rectangle 86" width="243.731" height="61.766" fill="none"/>
    </clipPath>
  </defs>
  <path id="Path_273" data-name="Path 273" d="M22.056,5.534l-6.734,20.6L8.476,5.534H0l10.326,28.85h9.71L30.362,5.534Z" transform="translate(0 10.693)" fill="#c65025"/>
  <g id="Group_117" data-name="Group 117" transform="translate(0 0)">
    <g id="Group_116" data-name="Group 116" clip-path="url(#clip-path)">
      <path id="Path_274" data-name="Path 274" d="M19.924,5.944a4.52,4.52,0,0,1-4.6,4.6,4.531,4.531,0,0,1-4.659-4.6A4.485,4.485,0,0,1,15.321,1.4a4.473,4.473,0,0,1,4.6,4.544M19.249,42.37H11.336V13.52h7.913Z" transform="translate(20.597 2.705)" fill="#c65025"/>
      <path id="Path_275" data-name="Path 275" d="M44.748,1.973v39.29h-6.9L37,37.783A11.128,11.128,0,0,1,28.359,41.6C20.5,41.6,14.72,36.156,14.72,26.782c0-8.98,5.782-14.706,13.583-14.706,3.929,0,6.679,1.349,8.476,3.313V1.973ZM36.891,26.894c0-4.882-2.694-8.25-7.016-8.25S22.8,21.954,22.8,26.838c0,4.826,2.75,8.195,7.072,8.195s7.016-3.369,7.016-8.139" transform="translate(28.437 3.812)" fill="#c65025"/>
      <path id="Path_276" data-name="Path 276" d="M55.426,27.814V34.6h-4.04c-3.987,0-5.389-1.571-5.559-4.1a10.1,10.1,0,0,1-8.81,4.433c-6.342,0-10.945-3.029-10.945-8.532,0-6.23,4.489-9.652,12.965-9.652h5.837V15.465c0-2.413-2.02-3.984-5.219-3.984-2.864,0-4.884,1.349-5.222,3.424H26.746c.56-6.119,5.667-9.485,13.3-9.485,7.969,0,12.683,3.592,12.683,10.5V26.242c0,1.234.56,1.571,1.516,1.571ZM44.874,22.369H38.811c-2.973,0-4.77,1.067-4.77,3.48,0,1.853,1.686,3.143,4.21,3.143,4.1,0,6.567-2.469,6.623-6.286Z" transform="translate(50.367 10.472)" fill="#c65025"/>
      <rect id="Rectangle_85" data-name="Rectangle 85" width="1.551" height="56.925" transform="translate(117.532 0)" fill="#fff"/>
      <path id="Path_277" data-name="Path 277" d="M62.916,12.237A2.471,2.471,0,0,1,60.2,14.673c-3.677,0-.229-6.3-7.353-6.3-2.665,0-5.2,1.472-5.2,3.77,0,6.846,16.87,4.181,16.87,12.5,0,3.905-2.9,6.8-9.561,6.8-6.526,0-10.848-3.31-10.848-5.79a2.311,2.311,0,0,1,2.621-2.392c2.85,0,2.436,7.218,9.1,7.218,2.988,0,5.562-1.7,5.562-3.955,0-6.94-16.823-4.043-16.823-12.088,0-4.09,2.988-6.94,9.514-6.94,5.7,0,8.825,2.574,8.825,4.735" transform="translate(85.228 14.494)" fill="#fff"/>
      <path id="Path_278" data-name="Path 278" d="M65.2,30.1l.276.5c-2.023,1.794-3.861,3.125-6.389,3.125-2.988,0-4.735-1.469-4.735-6.849V11.3h-2.8V10.293l6.389-4h.645v4h4.964V11.3H58.581V30.01c0,4.412,5.33,1.472,6.617.094" transform="translate(99.582 12.16)" fill="#fff"/>
      <path id="Path_279" data-name="Path 279" d="M69.274,7.533c6.846,0,12.868,3.952,12.868,11.9,0,7.629-6.022,11.9-12.868,11.9-6.9,0-12.962-4.275-12.962-11.9s6.066-11.9,12.962-11.9M71.341,30.1c11.581,0,8.18-21.279-4.046-21.279C55.623,8.82,59.206,30.1,71.341,30.1" transform="translate(108.787 14.554)" fill="#fff"/>
      <path id="Path_280" data-name="Path 280" d="M72.826,16.067v9.561c0,2.941,1.149,4.964,2.8,4.964h.138v.229H65.748v-.229h.138c1.7,0,2.8-2.023,2.8-4.964V11.057a2.616,2.616,0,0,0-2.8-2.756h-.138v-.46h7.078v6.435c1.976-3.77,5.1-6.711,8.778-6.711,4.873,0,7.034,3.908,7.034,9.423v8.64c0,2.941,1.149,4.964,2.8,4.964h.138v.229H81.56v-.229H81.7c1.7,0,2.8-2.023,2.8-4.964v-10.3c0-3.677-1.378-5.744-4.046-5.744-2.527,0-6.157,2.665-7.629,6.479" transform="translate(127.016 14.615)" fill="#fff"/>
      <path id="Path_281" data-name="Path 281" d="M80.712,18.472H94.087c.416-5.424-3.4-9.743-8.6-9.743-9.514,0-9.232,20.177,4.137,20.177,2.715,0,6.9-2.483,8-5.931l.83.276c-2.07,4.964-4.92,8.092-10.528,8.092-6.755,0-12.727-4.275-12.727-11.906s5.972-11.9,12.727-11.9a10.4,10.4,0,0,1,10.484,10.25v1.7h-17.7Z" transform="translate(145.276 14.554)" fill="#fff"/>
      <path id="Path_282" data-name="Path 282" d="M52.216,24.524l2.345-6.157h.906l2.343,6.157h-.818l-.651-1.665H53.658L53,24.524Zm1.668-2.357h2.228L55,19.2Z" transform="translate(100.874 35.483)" fill="#fff"/>
      <path id="Path_283" data-name="Path 283" d="M58.551,22.8v.657h-.4a.878.878,0,0,1-.616-.173.716.716,0,0,1-.191-.522,1.719,1.719,0,0,1-1.507.748,1.911,1.911,0,0,1-1.2-.349,1.143,1.143,0,0,1-.451-.959,1.232,1.232,0,0,1,.46-1.041,2.14,2.14,0,0,1,1.34-.361h1.319v-.308a.838.838,0,0,0-.3-.686,1.236,1.236,0,0,0-.821-.246,1.379,1.379,0,0,0-.771.205.865.865,0,0,0-.372.551h-.721a1.424,1.424,0,0,1,.586-1.029,2.171,2.171,0,0,1,1.313-.369,1.945,1.945,0,0,1,1.334.419,1.527,1.527,0,0,1,.469,1.2v1.935c0,.217.1.328.3.328Zm-1.24-1.393h-1.39c-.668,0-1,.249-1,.748a.637.637,0,0,0,.261.537,1.146,1.146,0,0,0,.715.2,1.472,1.472,0,0,0,1.035-.346,1.192,1.192,0,0,0,.378-.921Z" transform="translate(104.689 36.55)" fill="#fff"/>
      <path id="Path_284" data-name="Path 284" d="M59.322,19.412a2.1,2.1,0,0,1,.5,1.548v2.5H59.1V21a1.568,1.568,0,0,0-.314-1.058,1.119,1.119,0,0,0-.9-.366,1.207,1.207,0,0,0-.994.44,1.831,1.831,0,0,0-.361,1.2v2.243H55.81V18.972h.624l.1.607a1.755,1.755,0,0,1,1.478-.66,1.783,1.783,0,0,1,1.313.493" transform="translate(107.817 36.55)" fill="#fff"/>
      <path id="Path_285" data-name="Path 285" d="M60.948,19.412a2.1,2.1,0,0,1,.5,1.548v2.5h-.721V21a1.568,1.568,0,0,0-.314-1.058,1.119,1.119,0,0,0-.9-.366,1.207,1.207,0,0,0-.994.44,1.831,1.831,0,0,0-.361,1.2v2.243h-.721V18.972h.624l.1.607a1.755,1.755,0,0,1,1.478-.66,1.783,1.783,0,0,1,1.313.493" transform="translate(110.958 36.55)" fill="#fff"/>
      <path id="Path_286" data-name="Path 286" d="M59.275,20.01a1.931,1.931,0,0,1,.751-.8,2.125,2.125,0,0,1,1.108-.287,2.269,2.269,0,0,1,1.091.255,1.815,1.815,0,0,1,.748.739,2.41,2.41,0,0,1,.293,1.135c0,.064-.006.167-.021.308h-3.48v.062a1.491,1.491,0,0,0,.4,1.055,1.354,1.354,0,0,0,1.014.4,1.4,1.4,0,0,0,.821-.24,1.175,1.175,0,0,0,.452-.674h.733a1.9,1.9,0,0,1-.66,1.12,1.954,1.954,0,0,1-1.293.434,2.354,2.354,0,0,1-1.173-.281,2,2,0,0,1-.777-.812,2.521,2.521,0,0,1-.276-1.2,2.588,2.588,0,0,1,.267-1.2m3.24.748a1.263,1.263,0,0,0-.428-.888,1.4,1.4,0,0,0-.944-.317,1.318,1.318,0,0,0-.894.334,1.285,1.285,0,0,0-.443.871Z" transform="translate(113.995 36.55)" fill="#fff"/>
      <path id="Path_287" data-name="Path 287" d="M66.917,19.394a2.031,2.031,0,0,1,.469,1.478v2.586h-.721V20.916a1.533,1.533,0,0,0-.279-.994.949.949,0,0,0-.786-.346,1.069,1.069,0,0,0-.882.4,1.681,1.681,0,0,0-.323,1.082v2.4h-.718V20.916a1.533,1.533,0,0,0-.284-.994.979.979,0,0,0-.8-.346,1.043,1.043,0,0,0-.868.419,1.752,1.752,0,0,0-.32,1.1v2.366h-.721V18.969h.625l.1.616a1.539,1.539,0,0,1,1.311-.666,1.68,1.68,0,0,1,.856.214,1.331,1.331,0,0,1,.56.639,1.838,1.838,0,0,1,2.785-.378" transform="translate(117.233 36.55)" fill="#fff"/>
      <path id="Path_288" data-name="Path 288" d="M63.442,20.01a1.931,1.931,0,0,1,.751-.8,2.125,2.125,0,0,1,1.108-.287,2.269,2.269,0,0,1,1.091.255,1.815,1.815,0,0,1,.748.739,2.41,2.41,0,0,1,.293,1.135c0,.064-.006.167-.021.308h-3.48v.062a1.491,1.491,0,0,0,.4,1.055,1.354,1.354,0,0,0,1.014.4,1.4,1.4,0,0,0,.821-.24,1.175,1.175,0,0,0,.451-.674h.733a1.9,1.9,0,0,1-.66,1.12,1.954,1.954,0,0,1-1.293.434,2.354,2.354,0,0,1-1.173-.281,2,2,0,0,1-.777-.812,2.521,2.521,0,0,1-.276-1.2,2.588,2.588,0,0,1,.267-1.2m3.24.748a1.263,1.263,0,0,0-.428-.888,1.4,1.4,0,0,0-.944-.317,1.319,1.319,0,0,0-.894.334,1.285,1.285,0,0,0-.443.871Z" transform="translate(122.045 36.55)" fill="#fff"/>
      <path id="Path_289" data-name="Path 289" d="M67.13,18.937v.7h-.361a1,1,0,0,0-.921.434,1.912,1.912,0,0,0-.276,1.061v2.287h-.721V18.937h.624l.1.677a1.465,1.465,0,0,1,.5-.493,1.66,1.66,0,0,1,.853-.185Z" transform="translate(125.285 36.585)" fill="#fff"/>
      <path id="Path_290" data-name="Path 290" d="M66.407,21.986a.837.837,0,0,0,.355.66,1.644,1.644,0,0,0,1.648.064.573.573,0,0,0,.29-.5.548.548,0,0,0-.141-.408.76.76,0,0,0-.364-.191c-.147-.035-.364-.07-.636-.106a5.6,5.6,0,0,1-.953-.185,1.334,1.334,0,0,1-.6-.366.99.99,0,0,1-.226-.689,1.183,1.183,0,0,1,.223-.7,1.447,1.447,0,0,1,.61-.478,2.378,2.378,0,0,1,2.164.2,1.393,1.393,0,0,1,.548,1.053h-.721a.862.862,0,0,0-.343-.578,1.194,1.194,0,0,0-.748-.229,1.289,1.289,0,0,0-.739.191.568.568,0,0,0-.284.493.471.471,0,0,0,.132.355.729.729,0,0,0,.34.167c.138.029.349.062.627.094a5.485,5.485,0,0,1,.973.2,1.306,1.306,0,0,1,.616.4,1.1,1.1,0,0,1,.232.739,1.117,1.117,0,0,1-.237.712,1.516,1.516,0,0,1-.639.475,2.338,2.338,0,0,1-.9.164,2.283,2.283,0,0,1-1.413-.4,1.356,1.356,0,0,1-.539-1.126Z" transform="translate(126.896 36.544)" fill="#fff"/>
      <path id="Path_291" data-name="Path 291" d="M70.552,20.256a1.942,1.942,0,0,1,.765.795,2.571,2.571,0,0,1,.279,1.231,2.49,2.49,0,0,1-.279,1.193,2.043,2.043,0,0,1-.768.809,2.114,2.114,0,0,1-1.108.29,2.027,2.027,0,0,1-.932-.2,1.535,1.535,0,0,1-.607-.542l-.1.686H67.18V18.368H67.9v2.389a1.8,1.8,0,0,1,1.539-.771,2.267,2.267,0,0,1,1.111.27m-.106,3.216a1.935,1.935,0,0,0,0-2.384,1.368,1.368,0,0,0-1.076-.463,1.454,1.454,0,0,0-.771.208,1.364,1.364,0,0,0-.525.581,1.884,1.884,0,0,0-.182.847,1.974,1.974,0,0,0,.182.868,1.394,1.394,0,0,0,1.3.8,1.375,1.375,0,0,0,1.076-.46" transform="translate(129.782 35.485)" fill="#fff"/>
      <path id="Path_292" data-name="Path 292" d="M69.124,20.01a1.931,1.931,0,0,1,.751-.8,2.125,2.125,0,0,1,1.108-.287,2.269,2.269,0,0,1,1.091.255,1.815,1.815,0,0,1,.748.739,2.41,2.41,0,0,1,.293,1.135c0,.064-.006.167-.02.308h-3.48v.062a1.491,1.491,0,0,0,.4,1.055,1.354,1.354,0,0,0,1.014.4,1.4,1.4,0,0,0,.821-.24,1.175,1.175,0,0,0,.451-.674h.733a1.9,1.9,0,0,1-.66,1.12,1.954,1.954,0,0,1-1.293.434,2.353,2.353,0,0,1-1.173-.281,2,2,0,0,1-.777-.812,2.521,2.521,0,0,1-.276-1.2,2.588,2.588,0,0,1,.267-1.2m3.24.748a1.263,1.263,0,0,0-.428-.888,1.4,1.4,0,0,0-.944-.317,1.318,1.318,0,0,0-.894.334,1.285,1.285,0,0,0-.443.871Z" transform="translate(133.022 36.55)" fill="#fff"/>
      <path id="Path_293" data-name="Path 293" d="M74.892,18.368v6.154h-.624l-.1-.721a1.8,1.8,0,0,1-1.539.774,2.2,2.2,0,0,1-1.111-.273,1.892,1.892,0,0,1-.765-.789,2.579,2.579,0,0,1-.276-1.231,2.5,2.5,0,0,1,.276-1.2,2.051,2.051,0,0,1,.768-.812,2.168,2.168,0,0,1,1.108-.287,2.027,2.027,0,0,1,.932.2,1.514,1.514,0,0,1,.607.542V18.368Zm-1.419,5.359A1.381,1.381,0,0,0,74,23.147a1.892,1.892,0,0,0,.182-.847A1.965,1.965,0,0,0,74,21.432a1.4,1.4,0,0,0-.525-.592,1.432,1.432,0,0,0-.771-.214,1.368,1.368,0,0,0-1.076.463,1.936,1.936,0,0,0,0,2.384,1.366,1.366,0,0,0,1.076.46,1.451,1.451,0,0,0,.771-.205" transform="translate(136.158 35.485)" fill="#fff"/>
      <path id="Path_294" data-name="Path 294" d="M74.543,18.937v.7h-.361a1,1,0,0,0-.921.434,1.912,1.912,0,0,0-.276,1.061v2.287h-.721V18.937h.624l.1.677a1.465,1.465,0,0,1,.5-.493,1.66,1.66,0,0,1,.853-.185Z" transform="translate(139.606 36.585)" fill="#fff"/>
      <path id="Path_295" data-name="Path 295" d="M73.973,18.478a.47.47,0,0,1,.132.334.477.477,0,0,1-.132.337.466.466,0,0,1-.8-.337.458.458,0,0,1,.132-.334.489.489,0,0,1,.668,0m-.695,1.6H74v4.486h-.721Z" transform="translate(141.36 35.443)" fill="#fff"/>
      <path id="Path_296" data-name="Path 296" d="M73.955,25.664a.416.416,0,0,0,.493-.493V20.079h.721v5.075a1.233,1.233,0,0,1-.276.885,1.2,1.2,0,0,1-.894.284h-.607v-.66Zm1.187-7.186a.453.453,0,0,1,.132.334.464.464,0,0,1-.132.337.458.458,0,0,1-.334.129.442.442,0,0,1-.463-.466.471.471,0,0,1,.8-.334" transform="translate(141.783 35.443)" fill="#fff"/>
      <path id="Path_297" data-name="Path 297" d="M74.916,20.036v-.5a1.238,1.238,0,0,1,.279-.885,1.213,1.213,0,0,1,.891-.281h.83v.657H76.13a.526.526,0,0,0-.378.114.545.545,0,0,0-.114.378v.519h1.27V20.7h-1.27v3.823h-.721V20.7H74.11v-.663Z" transform="translate(143.17 35.485)" fill="#fff"/>
    </g>
  </g>
</svg>
